<svg width="20" height="20" viewBox="0 0 20 20" fill="none" xmlns="http://www.w3.org/2000/svg">
<path d="M10.8687 9.74534L19.2687 1.34211C19.4168 1.19328 19.5 0.991812 19.4998 0.781844C19.4997 0.571877 19.4163 0.370522 19.2679 0.221883C18.9709 -0.073464 18.4478 -0.0749554 18.1478 0.223375L9.75001 8.6266L1.34927 0.221137C1.05076 -0.0734639 0.527629 -0.0719724 0.230614 0.222629C0.156892 0.296013 0.0985325 0.383337 0.0589408 0.479505C0.0193492 0.575672 -0.000681437 0.678757 1.76896e-05 0.782745C1.76896e-05 0.994559 0.0821072 1.19295 0.230614 1.33988L8.63061 9.74459L0.231361 18.1501C0.083141 18.2991 0.000136378 18.5009 0.000556088 18.711C0.000975798 18.9212 0.0847858 19.1226 0.2336 19.271C0.377629 19.4135 0.58136 19.4955 0.791808 19.4955H0.796286C1.00748 19.4948 1.21121 19.412 1.35225 19.268L9.75001 10.8648L18.1507 19.2703C18.2993 19.418 18.4978 19.5 18.7082 19.5C18.8123 19.5003 18.9154 19.48 19.0116 19.4404C19.1078 19.4007 19.1952 19.3424 19.2687 19.2689C19.3423 19.1953 19.4006 19.108 19.4403 19.0118C19.48 18.9157 19.5003 18.8127 19.5 18.7087C19.5 18.4976 19.4179 18.2985 19.2687 18.1515L10.8687 9.74534Z" fill="#CE0404"/>
</svg>
