<svg width="18" height="18" viewBox="0 0 18 18" fill="none" xmlns="http://www.w3.org/2000/svg">
<path d="M17.6937 2.42724L6.62003 17.5821C6.52358 17.7146 6.40898 17.8197 6.28279 17.8914C6.1566 17.9631 6.02131 18 5.88467 18C5.74804 18 5.61275 17.9631 5.48656 17.8914C5.36037 17.8197 5.24576 17.7146 5.14931 17.5821L0.304596 10.9519C0.208027 10.8197 0.131424 10.6628 0.0791618 10.4901C0.0268992 10.3175 1.43899e-09 10.1324 0 9.94548C-1.43899e-09 9.75858 0.0268992 9.57351 0.0791618 9.40084C0.131424 9.22816 0.208027 9.07127 0.304596 8.93911C0.401164 8.80695 0.515808 8.70211 0.641981 8.63059C0.768154 8.55906 0.903386 8.52225 1.03995 8.52225C1.17652 8.52225 1.31176 8.55906 1.43793 8.63059C1.5641 8.70211 1.67875 8.80695 1.77531 8.93911L5.88554 14.5642L16.2247 0.416855C16.4197 0.149947 16.6842 0 16.96 0C17.2359 0 17.5004 0.149947 17.6954 0.416855C17.8904 0.683763 18 1.04577 18 1.42323C18 1.8007 17.8904 2.1627 17.6954 2.42961L17.6937 2.42724Z" fill="white"/>
</svg>
